HIERARCHY
ROOT Hips
{
	OFFSET 181.407898 92.019173 39.530121
	CHANNELS 6 Xposition Yposition Zposition Zrotation Yrotation Xrotation 
	JOINT LeftUpLeg
	{
		OFFSET 0.103458 1.857830 10.548511
		CHANNELS 3 Zrotation Yrotation Xrotation
		JOINT LeftLeg
		{
			OFFSET 43.500000 -0.000034 0.000002
			CHANNELS 3 Zrotation Yrotation Xrotation
			JOINT LeftFoot
			{
				OFFSET 42.372192 0.000015 -0.000005
				CHANNELS 3 Zrotation Yrotation Xrotation
				JOINT LeftToe
				{
					OFFSET 17.299999 -0.000002 0.000006
					CHANNELS 3 Zrotation Yrotation Xrotation
					End Site
					{
						OFFSET 0.000000 0.000000 0.000000
					}
				}
			}
		}
	}
	JOINT RightUpLeg
	{
		OFFSET 0.103456 1.857828 -10.548506
		CHANNELS 3 Zrotation Yrotation Xrotation
		JOINT RightLeg
		{
			OFFSET 43.500038 -0.000023 0.000004
			CHANNELS 3 Zrotation Yrotation Xrotation
			JOINT RightFoot
			{
				OFFSET 42.372265 -0.000004 0.000015
				CHANNELS 3 Zrotation Yrotation Xrotation
				JOINT RightToe
				{
					OFFSET 17.299994 -0.000005 -0.000004
					CHANNELS 3 Zrotation Yrotation Xrotation
					End Site
					{
						OFFSET 0.000000 0.000000 0.000000
					}
				}
			}
		}
	}
	JOINT Spine
	{
		OFFSET 6.901968 -2.603730 -0.000005
		CHANNELS 3 Zrotation Yrotation Xrotation
		JOINT Spine1
		{
			OFFSET 12.588101 -0.000001 0.000008
			CHANNELS 3 Zrotation Yrotation Xrotation
			JOINT Spine2
			{
				OFFSET 12.343199 -0.000002 0.000004
				CHANNELS 3 Zrotation Yrotation Xrotation
				JOINT Neck
				{
					OFFSET 25.832901 -0.000004 -0.000011
					CHANNELS 3 Zrotation Yrotation Xrotation
					JOINT Head
					{
						OFFSET 11.766607 0.000005 0.000000
						CHANNELS 3 Zrotation Yrotation Xrotation
						End Site
						{
							OFFSET 0.000000 0.000000 0.000000
						}
					}
				}
				JOINT LeftShoulder
				{
					OFFSET 19.745911 -1.480373 6.000101
					CHANNELS 3 Zrotation Yrotation Xrotation
					JOINT LeftArm
					{
						OFFSET 11.284123 -0.000010 -0.000027
						CHANNELS 3 Zrotation Yrotation Xrotation
						JOINT LeftForeArm
						{
							OFFSET 33.000042 0.000003 0.000027
							CHANNELS 3 Zrotation Yrotation Xrotation
							JOINT LeftHand
							{
								OFFSET 25.200010 0.000018 0.000014
								CHANNELS 3 Zrotation Yrotation Xrotation
								End Site
								{
									OFFSET 0.000000 0.000000 0.000000
								}
							}
						}
					}
				}
				JOINT RightShoulder
				{
					OFFSET 19.746101 -1.480375 -6.000073
					CHANNELS 3 Zrotation Yrotation Xrotation
					JOINT RightArm
					{
						OFFSET 11.284151 -0.000017 -0.000003
						CHANNELS 3 Zrotation Yrotation Xrotation
						JOINT RightForeArm
						{
							OFFSET 33.000095 0.000018 0.000001
							CHANNELS 3 Zrotation Yrotation Xrotation
							JOINT RightHand
							{
								OFFSET 25.199774 0.000135 0.000424
								CHANNELS 3 Zrotation Yrotation Xrotation
								End Site
								{
									OFFSET 0.000000 0.000000 0.000000
								}
							}
						}
					}
				}
			}
		}
	}
}
MOTION
Frames: 11
Frame Time: 0.033333
149.178604 8.292292 6.973062 98.704054 29.940373 52.127994 106.240635 -31.026694 -146.425377 -73.248622 8.774119 21.199333 84.681259 -25.140885 -41.553320 21.454550 0.003095 -0.000001 95.569079 0.909398 -157.751046 -51.996079 10.463559 14.989157 66.176269 -2.925050 23.222529 21.454557 -0.003108 -0.000008 15.491458 -3.242526 -1.491146 21.097128 -6.158766 -3.554700 20.777669 -6.179979 -3.517350 28.677683 2.667116 1.795501 -15.946871 -14.393346 7.174537 140.643294 -85.929462 37.972416 -9.897556 54.363279 -41.415340 -102.643011 1.729184 2.746669 -7.168804 -28.739039 30.469846 73.474715 79.796021 -105.625993 -1.586593 -72.189437 -18.994773 -51.830098 21.998810 -2.311408 -37.158719 50.442231 -57.995901 
149.508194 8.091607 7.231276 98.369108 29.775472 53.474398 104.405336 -30.216511 -146.492340 -73.552122 8.777188 21.530687 82.769755 -25.974835 -40.917775 21.454553 0.003087 -0.000003 94.738521 2.412699 -158.761108 -53.003354 10.847766 15.506549 66.176965 -3.202123 23.568471 21.454557 -0.003108 -0.000012 15.611567 -3.169795 -1.240500 21.321581 -6.056656 -3.049077 21.002027 -6.074820 -3.012348 28.597932 2.317702 1.777771 -16.441158 -13.770053 6.993359 158.541736 -85.071406 20.031109 -4.759594 57.381676 -38.545008 -100.863289 1.423380 2.689074 -8.170734 -31.279572 28.611478 74.006527 80.026813 -105.082638 2.807947 -71.966316 -21.587339 -51.840760 21.855869 -2.302061 -35.700381 50.758821 -55.950304 
149.803406 7.862598 7.401536 97.816136 29.663255 54.686555 102.793165 -29.518493 -146.380858 -73.696717 8.658463 21.707456 80.603554 -26.671332 -39.941474 21.454555 0.003090 -0.000002 94.213949 3.757293 -159.839827 -53.723994 11.335005 16.126676 66.178113 -3.471793 24.160519 21.454558 -0.003110 -0.000016 15.770886 -3.117159 -1.032845 21.628048 -5.986289 -2.634614 21.308414 -6.001945 -2.598298 28.342130 2.022502 1.830202 -16.913258 -13.254345 6.921740 167.614003 -83.681736 10.949597 1.791735 59.301820 -32.585443 -98.531278 0.930347 2.619803 -6.773514 -35.618511 24.619697 74.908365 80.177972 -104.179735 5.609480 -71.644019 -23.013375 -51.603070 21.738144 -2.285827 -33.774732 51.195697 -53.421375 
150.098206 7.721497 7.505415 97.085190 29.573350 55.632355 101.657660 -28.919998 -146.384601 -73.617568 8.762355 21.757026 78.739917 -27.169330 -39.080194 21.454550 0.003096 -0.000001 94.077325 4.943205 -160.204764 -54.213602 11.453785 16.508547 66.260013 -3.531375 24.847813 21.454555 -0.003106 -0.000022 15.946024 -3.087947 -0.872831 21.969857 -5.953962 -2.320015 21.650154 -5.967729 -2.283892 28.185230 1.428464 1.921183 -17.222829 -12.620215 6.813561 174.081701 -82.290898 4.460240 8.284046 60.646274 -25.275996 -95.091977 0.073918 2.526454 -5.988915 -37.053267 21.979743 76.428055 79.990319 -102.693028 6.825050 -71.226305 -23.444763 -50.917503 21.944903 -2.276291 -30.817404 51.711458 -49.983686 
150.398407 7.661396 7.511332 96.437989 29.442456 56.310313 100.885043 -28.390306 -146.342595 -73.462475 8.916828 21.616120 77.213014 -27.528104 -38.695846 21.454551 0.003087 -0.000004 94.160790 5.866310 -160.236361 -54.329688 11.496769 16.740760 66.338527 -3.557697 25.298374 21.454555 -0.003106 -0.000029 16.090129 -3.120185 -0.699830 22.251592 -6.047503 -1.990175 21.931765 -6.059272 -1.953483 28.048541 0.439581 1.885611 -17.455653 -11.679756 6.428670 177.207906 -81.075329 1.325973 15.013261 60.927801 -15.437882 -91.063675 -1.011108 2.423183 -2.965175 -35.750740 19.871040 77.948038 79.862335 -101.201205 6.736199 -70.913059 -23.033083 -49.726103 22.277191 -2.258451 -27.577119 51.842515 -46.233492 
150.682404 7.594911 7.487226 95.821598 29.285023 56.902149 100.111551 -27.723007 -146.019896 -73.436609 8.981032 21.530445 75.910381 -27.931678 -38.599233 21.454550 0.003100 0.000003 94.307953 6.798403 -159.858638 -54.420939 11.497294 16.767071 66.577569 -3.646962 25.231108 21.454560 -0.003108 -0.000008 16.193999 -3.193316 -0.537454 22.454698 -6.221570 -1.687685 22.134693 -6.231509 -1.649934 28.045995 -0.946097 1.856113 -17.812681 -10.391286 5.918512 177.858317 -80.390719 0.682656 21.318433 60.435604 -2.703855 -86.608124 -3.113933 2.373301 -0.301794 -35.618006 17.236920 80.143582 79.510410 -99.060501 6.547286 -70.524060 -22.697183 -48.381122 22.501401 -2.228916 -24.164168 51.835945 -42.367711 
150.860199 7.516373 7.393344 95.154746 29.127557 57.677649 99.329843 -26.761904 -145.416981 -73.383887 8.904365 21.491504 74.644132 -28.301674 -38.352424 21.454555 0.003087 -0.000001 94.646963 8.018993 -159.294915 -54.484047 11.744483 16.654416 67.013356 -3.757369 24.946233 21.454558 -0.003107 -0.000026 16.293227 -3.264252 -0.440741 22.651475 -6.379019 -1.515173 22.331336 -6.387918 -1.476452 28.060799 -2.404567 1.860890 -18.300698 -9.198721 5.484904 178.736884 -80.036143 -0.201551 26.087424 59.571995 11.076594 -82.590026 -6.199611 2.412925 1.263473 -34.789135 16.221047 82.618918 78.897373 -96.666670 6.408011 -70.036575 -23.008153 -47.125245 22.700583 -2.201530 -19.951495 51.996034 -38.266794 
150.897400 7.447830 7.298481 94.435097 28.917088 58.251241 98.460121 -26.014596 -144.683870 -73.441623 8.753486 21.548846 73.364182 -28.544078 -37.546014 21.454555 0.003097 0.000001 95.107734 9.082112 -158.307379 -54.590912 11.931588 16.368354 67.669806 -3.745609 24.758690 21.454558 -0.003108 -0.000012 16.357442 -3.366872 -0.299122 22.776784 -6.608888 -1.258174 22.456446 -6.616239 -1.218051 27.991019 -3.877740 1.870370 -18.640450 -7.894096 4.986462 179.087628 -79.490711 -0.546012 29.842743 58.792417 21.625965 -79.960970 -7.904409 2.417952 2.122837 -30.576223 15.546588 83.603100 78.403591 -95.737710 7.395287 -69.990314 -24.043794 -46.789555 22.478414 -2.175854 -16.042719 49.859312 -35.706334 
150.841202 7.415679 7.136270 93.922041 28.824054 58.929930 97.796213 -25.354612 -144.421290 -73.357734 8.645217 21.610420 72.049050 -28.638239 -36.325897 21.454550 0.003099 0.000001 95.657633 10.176692 -157.180329 -54.742306 12.024462 15.937594 68.621749 -3.649093 24.664187 21.454555 -0.003109 -0.000019 16.434412 -3.529105 -0.132284 22.928059 -6.961901 -0.964126 22.607441 -6.967458 -0.921847 28.061021 -5.034743 1.766870 -19.065380 -6.685182 4.413102 179.230407 -78.723101 -0.674515 31.936274 58.505959 28.099916 -78.112700 -8.911635 2.408774 0.094430 -28.290681 15.773067 82.144834 77.898690 -97.223508 10.065023 -70.855570 -26.400034 -47.915703 22.266219 -2.197858 -11.739656 46.804226 -34.141551 
150.760193 7.439291 6.984008 93.803346 28.807101 59.674174 97.266128 -24.883300 -144.802579 -73.235044 8.586220 21.706579 70.794747 -28.615322 -34.849780 21.454553 0.003084 -0.000003 95.961398 11.233505 -156.286066 -55.149188 12.113603 15.430362 69.965692 -3.687285 24.229924 21.454555 -0.003111 -0.000023 16.470151 -3.762013 0.060907 22.997143 -7.460891 -0.629822 22.676097 -7.464429 -0.584484 28.589997 -5.922789 1.618082 -19.840383 -5.724091 3.935723 179.786889 -78.152104 -1.229276 32.590401 59.375067 30.396951 -76.463804 -10.111262 2.421995 -3.598924 -24.379348 18.805831 80.289557 76.966656 -99.135565 15.631409 -72.062129 -31.737608 -51.301851 21.586745 -2.265169 -8.938359 46.210908 -33.551050 
150.637894 7.483355 6.780623 93.855637 28.515901 60.535502 96.511802 -24.477791 -145.173567 -72.973324 8.457670 21.812204 69.525725 -28.478754 -33.124102 21.454553 0.003093 0.000002 95.902604 12.253698 -155.356327 -55.730047 12.160226 14.916286 71.584863 -3.887491 23.404248 21.454558 -0.003109 -0.000005 16.438766 -3.945580 0.310703 22.924879 -7.874209 -0.168581 22.603495 -7.874949 -0.120704 29.060539 -7.017129 1.464409 -20.409541 -4.515983 3.329699 -178.596606 -77.668881 -2.868216 30.287880 60.215822 29.032440 -75.610338 -10.751109 2.430343 -2.294583 -22.355342 13.642329 78.437592 76.099803 -101.034132 21.474946 -73.677633 -37.994341 -55.367638 20.375129 -2.326272 -7.851980 49.140858 -31.721567 
